<svg width="414" height="168" viewBox="0 0 414 168" fill="none" xmlns="http://www.w3.org/2000/svg">
<path d="M0 38.5C0 -22.2513 49.2487 -71.5 110 -71.5H471C531.751 -71.5 581 -22.2513 581 38.5V57.5C581 118.251 531.751 167.5 471 167.5H110C49.2487 167.5 0 118.251 0 57.5V38.5Z" fill="#CADAEA"/>
<path d="M1 29.5C1 -31.2513 50.2487 -80.5 111 -80.5H472C532.751 -80.5 582 -31.2513 582 29.5V48.5C582 109.251 532.751 158.5 472 158.5H111C50.2487 158.5 1 109.251 1 48.5V29.5Z" fill="#8FA6BC"/>
<path d="M1 18.5C1 -42.2513 50.2487 -91.5 111 -91.5H472C532.751 -91.5 582 -42.2513 582 18.5V37.5C582 98.2513 532.751 147.5 472 147.5H111C50.2487 147.5 1 98.2513 1 37.5V18.5Z" fill="#7C98B3"/>
</svg>
