<svg width="414" height="896" viewBox="0 0 414 896" fill="none" xmlns="http://www.w3.org/2000/svg">
<g clip-path="url(#clip0_182_23)">
<rect width="414" height="896" fill="white"/>
<path d="M414.294 144.278C414.091 171.892 391.501 194.166 363.888 193.964C247.454 193.114 165.422 192.516 48.9889 191.666C21.3754 191.464 -0.885859 168.915 -0.68335 141.302L3.12717 -378.288C3.32968 -405.902 25.879 -428.124 53.4925 -427.922L368.472 -425.623C396.085 -425.422 418.306 -402.821 418.103 -375.207C416.669 -179.674 415.728 -51.2552 414.294 144.278Z" fill="#CADAEA"/>
<path d="M414.293 136.278C414.091 163.891 391.501 186.165 363.887 185.964C247.453 185.114 165.422 184.515 48.9884 183.665C21.3749 183.464 -0.886348 160.915 -0.683839 133.301L3.12668 -386.289C3.32919 -413.902 25.8785 -436.124 53.492 -435.923L368.471 -433.624C396.085 -433.422 418.305 -410.821 418.103 -383.208C416.669 -187.675 415.727 -59.2557 414.293 136.278Z" fill="#8FA6BC"/>
<path d="M414.293 126.277C414.091 153.891 391.501 176.165 363.887 175.963C247.454 175.114 165.422 174.515 48.9885 173.665C21.375 173.464 -0.886301 150.915 -0.683792 123.301L3.12673 -396.289C3.32924 -423.902 25.8786 -446.124 53.4921 -445.923L368.471 -443.624C396.085 -443.422 418.305 -420.821 418.103 -393.208C416.669 -197.675 415.727 -69.2558 414.293 126.277Z" fill="#7C98B3"/>
</g>
<defs>
<clipPath id="clip0_182_23">
<rect width="414" height="896" fill="white"/>
</clipPath>
</defs>
</svg>
