<svg width="421" height="675" viewBox="0 0 414 675" fill="none" xmlns="http://www.w3.org/2000/svg">
<path d="M-3.61485 51.33C-3.52639 23.7159 18.9711 1.43742 46.585 1.58102C163.074 2.18679 245.14 2.61355 361.629 3.21933C389.243 3.36293 411.597 25.8652 411.509 53.4793L409.549 665.334C409.46 692.948 387.003 715.218 359.389 715.074L44.2643 713.435C16.6504 713.292 -5.66331 690.78 -5.57485 663.166C-4.83358 431.771 -4.35612 282.725 -3.61485 51.33Z" fill="#CADAEA"/>
<path d="M-3.58513 60.5217C-3.49667 32.9076 19.0008 10.6292 46.6147 10.7728C163.104 11.3786 245.169 11.8053 361.659 12.4111C389.273 12.5547 411.627 35.057 411.538 62.6711L409.578 674.526C409.49 702.14 387.033 724.41 359.419 724.266L44.294 722.627C16.6802 722.484 -5.63359 699.972 -5.54513 672.358C-4.80386 440.963 -4.3264 291.917 -3.58513 60.5217Z" fill="#8FA6BC"/>
<path d="M-3.54863 72.0107C-3.46017 44.3966 19.0373 22.1182 46.6512 22.2618C163.141 22.8676 245.206 23.2943 361.695 23.9001C389.309 24.0437 411.663 46.546 411.575 74.1601L409.615 686.015C409.526 713.629 387.069 735.899 359.455 735.755L44.3305 734.116C16.7167 733.973 -5.59709 711.461 -5.50863 683.847C-4.76736 452.452 -4.2899 303.406 -3.54863 72.0107Z" fill="#7C98B3"/>
</svg>
