<svg width="414" height="186" viewBox="0 0 414 186" fill="none" xmlns="http://www.w3.org/2000/svg">
<path d="M-7.44445 -72.5H406.555C406.555 -72.5 618.555 1.5 406.555 141.5C194.555 281.5 171.556 -31 -7.44445 141.5C-186.444 314 -7.44445 -72.5 -7.44445 -72.5Z" fill="#CADAEA"/>
<path d="M-7.44445 -81.5H406.555C406.555 -81.5 618.555 -7.5 406.555 132.5C194.555 272.5 171.556 -40 -7.44445 132.5C-186.444 305 -7.44445 -81.5 -7.44445 -81.5Z" fill="#8FA6BC"/>
<path d="M-7.38891 -90H406.611C406.611 -90 618.611 -16 406.611 124C194.611 264 171.611 -48.5 -7.38891 124C-186.389 296.5 -7.38891 -90 -7.38891 -90Z" fill="#7C98B3"/>
</svg>
