<svg width="414" height="209" viewBox="0 0 414 209" fill="none" xmlns="http://www.w3.org/2000/svg">
<path d="M-1.49999 -49.5H412.5C412.5 -49.5 624.5 24.5 412.5 164.5C200.5 304.5 177.5 -8 -1.49999 164.5C-180.5 337 -1.49999 -49.5 -1.49999 -49.5Z" fill="#CADAEA"/>
<g filter="url(#filter0_i_127:24)">
<path d="M-1.49999 -58.5H412.5C412.5 -58.5 624.5 15.5 412.5 155.5C200.5 295.5 177.5 -17 -1.49999 155.5C-180.5 328 -1.49999 -58.5 -1.49999 -58.5Z" fill="#8FA6BC"/>
</g>
<g filter="url(#filter1_d_127:24)">
<path d="M-1.44445 -67H412.555C412.555 -67 624.555 7 412.555 147C200.555 287 177.556 -25.5 -1.44445 147C-180.444 319.5 -1.44445 -67 -1.44445 -67Z" fill="#7C98B3"/>
</g>
<defs>
<filter id="filter0_i_127:24" x="-81.0555" y="-58.5" width="587.778" height="262.336" filterUnits="userSpaceOnUse" color-interpolation-filters="sRGB">
<feFlood flood-opacity="0" result="BackgroundImageFix"/>
<feBlend mode="normal" in="SourceGraphic" in2="BackgroundImageFix" result="shape"/>
<feColorMatrix in="SourceAlpha" type="matrix" values="0 0 0 0 0 0 0 0 0 0 0 0 0 0 0 0 0 0 127 0" result="hardAlpha"/>
<feOffset dy="4"/>
<feGaussianBlur stdDeviation="2"/>
<feComposite in2="hardAlpha" operator="arithmetic" k2="-1" k3="1"/>
<feColorMatrix type="matrix" values="0 0 0 0 0 0 0 0 0 0 0 0 0 0 0 0 0 0 0.25 0"/>
<feBlend mode="normal" in2="shape" result="effect1_innerShadow_127:24"/>
</filter>
<filter id="filter1_d_127:24" x="-85" y="-67" width="595.778" height="269.336" filterUnits="userSpaceOnUse" color-interpolation-filters="sRGB">
<feFlood flood-opacity="0" result="BackgroundImageFix"/>
<feColorMatrix in="SourceAlpha" type="matrix" values="0 0 0 0 0 0 0 0 0 0 0 0 0 0 0 0 0 0 127 0" result="hardAlpha"/>
<feOffset dy="7"/>
<feGaussianBlur stdDeviation="2"/>
<feComposite in2="hardAlpha" operator="out"/>
<feColorMatrix type="matrix" values="0 0 0 0 0.592157 0 0 0 0 0.670588 0 0 0 0 0.74902 0 0 0 1 0"/>
<feBlend mode="normal" in2="BackgroundImageFix" result="effect1_dropShadow_127:24"/>
<feBlend mode="normal" in="SourceGraphic" in2="effect1_dropShadow_127:24" result="shape"/>
</filter>
</defs>
</svg>
